<?xml version="1.0" encoding="UTF-8" standalone="no"?>
<!-- Created with Inkscape (http://www.inkscape.org/) -->

<svg
   xmlns:svg="http://www.w3.org/2000/svg"
   xmlns="http://www.w3.org/2000/svg"
   version="1.1"
   width="815.07001"
   height="283.46375"
   xml:space="preserve"><defs
     id="defs3407"><clipPath
       id="clipPath3417"><path
         d="M 0,612 792,612 792,0 0,0 0,612 z"
         id="path3419" /></clipPath></defs><g
     transform="matrix(1.25,0,0,-1.25,-75.625,590.33875)"
     id="g3411"><g
       id="g3413"><g
         clip-path="url(#clipPath3417)"
         id="g3415"><path
           d="m 163.583,458.099 0,-74.237 c 15.655,0 28.02,-14.278 28.02,-31.889 0,-21.526 -19.038,-38.977 -42.52,-38.977 -33.267,0 -60.237,26.969 -60.237,60.236 0,6.806 1.13,13.347 3.211,19.448 -10.848,-12.929 -17.384,-29.597 -17.384,-47.794 0,-46.966 39.987,-85.213 88.91,-85.213 54.792,0 99.212,44.42 99.212,99.213 0,54.793 -44.42,99.213 -99.212,99.213 M 103.02,373.232 c 0,-25.439 20.623,-46.063 46.063,-46.063 15.654,0 28.346,11.105 28.346,24.804 0,9.784 -6.346,17.716 -14.173,17.716 -7.828,0 -14.173,-4.759 -14.173,-10.63 l 0,60.236 c -25.44,0 -46.063,-20.623 -46.063,-46.063 m 60.563,99.039 c 62.62,0 113.385,-50.765 113.385,-113.385 0,-62.62 -50.765,-113.386 -113.385,-113.386 -56.75,0 -103.083,44.593 -103.083,99.386 0,48.922 39.66,88.582 88.583,88.582 l 0.326,37.923 c 4.644,0.579 9.374,0.88 14.174,0.88"
           id="path3421"
           style="fill:#ffffff;fill-opacity:1;fill-rule:nonzero;stroke:none" /><path
           d="m 315.445,316.23 c 6.491,0.465 10.696,1.437 12.618,2.914 1.921,1.477 2.882,5.297 2.882,11.461 l 0,71.125 c 0,5.885 -0.961,9.674 -2.882,11.367 -1.922,1.692 -6.127,2.695 -12.618,3.008 l 0,3 47.25,0 0,-3 c -6.492,-0.313 -10.697,-1.316 -12.619,-3.008 -1.922,-1.693 -2.881,-5.482 -2.881,-11.367 l 0,-71.125 c 0,-6.164 0.959,-9.984 2.881,-11.461 1.922,-1.477 6.127,-2.449 12.619,-2.914 l 0,-3 -47.25,0 0,3 z"
           id="path3423"
           style="fill:#ffffff;fill-opacity:1;fill-rule:nonzero;stroke:none" /><path
           d="m 368.972,316.23 c 6.593,0.676 10.826,2.17 12.695,4.486 1.869,2.315 2.805,7.686 2.805,16.114 l 0,70.459 -2.182,2.574 c -2.336,2.756 -4.322,4.459 -5.959,5.109 -1.637,0.651 -4.09,1.028 -7.359,1.133 l 0,3 27.197,0 61.928,-76.647 0,53.215 c 0,8.752 -1.309,14.45 -3.922,17.092 -1.727,1.707 -5.545,2.82 -11.453,3.34 l 0,3 37.625,0 0,-3 c -6.102,-0.625 -10.168,-2.109 -12.201,-4.453 -2.034,-2.344 -3.049,-7.707 -3.049,-16.09 l 0,-84.207 -2.723,0 -70.902,87.75 0,-62.273 c 0,-8.741 1.275,-14.438 3.828,-17.09 1.666,-1.719 5.39,-2.889 11.172,-3.512 l 0,-3 -37.5,0 0,3 z"
           id="path3425"
           style="fill:#ffffff;fill-opacity:1;fill-rule:nonzero;stroke:none" /><path
           d="m 551.988,323.75 c 5.516,3.179 8.276,9.281 8.276,18.3 0,8.967 -3.229,15.092 -9.682,18.377 -6.453,3.285 -14.676,4.928 -24.668,4.928 l -4.646,0 c -0.651,0 -1.653,0.025 -3.004,0.078 l 0,-39.885 c 0,-2.763 0.779,-4.548 2.341,-5.357 1.561,-0.809 5.178,-1.211 10.852,-1.211 8.17,0 15.014,1.59 20.531,4.77 m -5.131,50.572 c 6.77,3.14 10.157,8.769 10.157,16.885 0,9.582 -3.907,16.048 -11.719,19.4 -4.324,1.832 -10.887,2.748 -19.688,2.748 -3.334,0 -5.39,-0.289 -6.171,-0.865 -0.782,-0.576 -1.172,-2.147 -1.172,-4.713 l 0,-36.297 15.234,0.25 c 5.363,0.103 9.816,0.967 13.359,2.592 M 486.639,316.23 c 6.451,0.361 10.627,1.357 12.525,2.99 1.899,1.633 2.85,5.428 2.85,11.385 l 0,71.125 c 0,5.885 -0.951,9.674 -2.85,11.367 -1.898,1.692 -6.074,2.695 -12.525,3.008 l 0,3 44.836,0 c 12.808,0 22.976,-2.059 30.502,-6.176 7.523,-4.117 11.287,-11.203 11.287,-21.262 0,-7.556 -2.631,-13.289 -7.891,-17.195 -2.969,-2.242 -7.422,-4.092 -13.359,-5.551 7.34,-1.771 13.611,-4.726 18.816,-8.865 5.205,-4.14 7.809,-9.933 7.809,-17.379 0,-12.498 -5.78,-21.09 -17.338,-25.775 -6.092,-2.449 -13.59,-3.672 -22.492,-3.672 l -52.17,0 0,3 z"
           id="path3427"
           style="fill:#ffffff;fill-opacity:1;fill-rule:nonzero;stroke:none" /><path
           d="m 607.321,419.945 c 1.563,1.605 3.489,2.41 5.782,2.41 2.238,0 4.152,-0.791 5.742,-2.371 1.588,-1.582 2.383,-3.512 2.383,-5.793 0,-2.231 -0.795,-4.135 -2.383,-5.715 -1.59,-1.582 -3.504,-2.371 -5.742,-2.371 -2.293,0 -4.219,0.789 -5.782,2.371 -1.562,1.58 -2.343,3.484 -2.343,5.715 0,2.228 0.781,4.146 2.343,5.754 M 594.853,315.48 c 5.578,0.518 9.097,1.463 10.558,2.838 1.461,1.375 2.192,5.096 2.192,11.162 l 0,37.125 c 0,3.402 -0.235,5.76 -0.702,7.068 -0.781,2.141 -2.418,3.213 -4.91,3.213 -0.57,0 -1.129,-0.053 -1.674,-0.156 -0.546,-0.105 -2.117,-0.522 -4.714,-1.25 l 0,2.375 3.357,1.094 c 9.109,2.968 15.459,5.207 19.051,6.718 1.457,0.625 2.392,0.938 2.81,0.938 0.104,-0.365 0.157,-0.756 0.157,-1.17 l 0,-55.986 c 0,-5.899 0.714,-9.598 2.148,-11.098 1.432,-1.5 4.674,-2.457 9.727,-2.871 l 0,-2.25 -38,0 0,2.25 z"
           id="path3429"
           style="fill:#ffffff;fill-opacity:1;fill-rule:nonzero;stroke:none" /><path
           d="m 663.746,377.796 c -5.215,-4.736 -7.82,-12.906 -7.82,-24.507 0,-9.264 2.097,-17.903 6.295,-25.914 4.197,-8.014 10.025,-12.02 17.482,-12.02 5.84,0 10.336,2.68 13.49,8.039 3.155,5.359 4.733,12.383 4.733,21.074 0,9 -2.008,17.483 -6.024,25.444 -4.015,7.961 -9.828,11.943 -17.439,11.943 -4.121,0 -7.693,-1.354 -10.717,-4.059 m -12.451,-1.941 c 6.58,7.166 15.045,10.75 25.396,10.75 10.299,0 18.83,-3.389 25.592,-10.162 6.762,-6.776 10.143,-15.791 10.143,-27.049 0,-10.371 -3.278,-19.389 -9.832,-27.049 -6.555,-7.66 -15.031,-11.49 -25.434,-11.49 -9.988,0 -18.439,3.674 -25.357,11.021 -6.918,7.348 -10.377,16.573 -10.377,27.674 0,10.371 3.289,19.139 9.869,26.305"
           id="path3431"
           style="fill:#ffffff;fill-opacity:1;fill-rule:nonzero;stroke:none" /><path
           d="m 339.086,288.422 c 2.018,-0.461 3.147,-0.692 3.39,-0.692 0.5,0 0.974,0.112 1.422,0.335 0.449,0.224 0.759,0.574 0.932,1.048 l 1.125,0 0.5,-9.625 -1.219,0 c -0.708,1.912 -1.632,3.455 -2.77,4.629 -2.176,2.205 -5.102,3.309 -8.779,3.309 -3.712,0 -6.747,-1.188 -9.104,-3.563 -2.355,-2.376 -3.534,-5.645 -3.534,-9.809 0,-3.829 1.239,-6.886 3.716,-9.17 2.478,-2.284 5.616,-3.427 9.414,-3.427 2.746,0 5.275,0.531 7.589,1.593 1.329,0.6 2.788,1.509 4.377,2.723 l 0.998,-0.794 c -1.175,-1.2 -2.634,-2.252 -4.378,-3.159 -2.971,-1.534 -6.192,-2.3 -9.662,-2.3 -5.7,0 -10.223,1.472 -13.574,4.418 -3.091,2.723 -4.636,6.123 -4.636,10.201 0,4.174 1.629,7.678 4.89,10.513 3.433,2.974 7.9,4.461 13.404,4.461 1.914,0 3.88,-0.23 5.899,-0.691"
           id="path3433"
           style="fill:#ffffff;fill-opacity:1;fill-rule:nonzero;stroke:none" /><path
           d="m 370.188,264.439 c 2.196,-2.155 4.894,-3.232 8.094,-3.232 3.129,0 5.805,1.049 8.028,3.148 2.222,2.1 3.334,5.459 3.334,10.077 0,4.672 -1.125,8.047 -3.373,10.127 -2.249,2.078 -4.911,3.117 -7.989,3.117 -3.183,0 -5.877,-1.078 -8.082,-3.233 -2.205,-2.156 -3.306,-5.492 -3.306,-10.011 0,-4.506 1.097,-7.837 3.294,-9.993 m -3.96,21.008 c 3.262,2.528 7.276,3.791 12.041,3.791 4.781,0 8.804,-1.271 12.066,-3.812 3.539,-2.75 5.309,-6.415 5.309,-10.994 0,-4.651 -1.831,-8.351 -5.491,-11.102 -3.279,-2.457 -7.241,-3.685 -11.884,-3.685 -4.972,0 -9.098,1.361 -12.377,4.084 -3.332,2.778 -4.998,6.345 -4.998,10.703 0,4.579 1.777,8.251 5.334,11.015"
           id="path3435"
           style="fill:#ffffff;fill-opacity:1;fill-rule:nonzero;stroke:none" /><path
           d="m 411.384,268.832 c 0.896,-1.933 1.947,-3.473 3.154,-4.621 2.103,-2.003 4.714,-3.004 7.834,-3.004 1.689,0 3.149,0.434 4.382,1.301 1.232,0.868 1.849,2.078 1.849,3.633 0,1.398 -0.624,2.616 -1.868,3.652 -0.812,0.657 -2.523,1.645 -5.131,2.959 l -4.535,2.289 c -1.365,0.699 -2.451,1.406 -3.257,2.12 -1.495,1.359 -2.241,2.857 -2.241,4.495 0,2.17 0.89,3.977 2.669,5.418 1.78,1.444 4.138,2.164 7.075,2.164 1.209,0 2.664,-0.242 4.366,-0.726 1.702,-0.485 2.673,-0.727 2.916,-0.727 0.656,0 1.109,0.126 1.359,0.379 0.251,0.253 0.445,0.611 0.584,1.074 l 1.094,0 1.156,-9.125 -1.281,0 c -0.865,2.744 -2.252,4.658 -4.162,5.745 -1.911,1.087 -3.801,1.63 -5.668,1.63 -1.452,0 -2.719,-0.346 -3.799,-1.039 -1.081,-0.693 -1.621,-1.654 -1.621,-2.886 0,-1.106 0.414,-2.05 1.244,-2.834 0.83,-0.797 2.119,-1.63 3.865,-2.499 l 4.67,-2.33 c 2.924,-1.455 4.983,-2.79 6.176,-4.004 1.176,-1.229 1.764,-2.681 1.764,-4.357 0,-2.248 -1.049,-4.125 -3.145,-5.633 -2.096,-1.508 -4.773,-2.261 -8.033,-2.261 -1.639,0 -3.352,0.252 -5.137,0.757 -1.785,0.505 -2.808,0.758 -3.066,0.758 -0.621,0 -1.039,-0.154 -1.255,-0.463 -0.216,-0.309 -0.359,-0.638 -0.427,-0.99 l -1.156,0 -1.594,9.125 1.219,0 z"
           id="path3437"
           style="fill:#ffffff;fill-opacity:1;fill-rule:nonzero;stroke:none" /><path
           d="m 448.818,288.613 29.969,0 0.281,-7.281 -1.281,0 c -0.621,2.286 -1.409,3.774 -2.366,4.465 -0.957,0.689 -2.971,1.035 -6.04,1.035 l -2.938,0 0,-21.937 c 0,-1.663 0.32,-2.692 0.958,-3.09 0.64,-0.399 2.039,-0.66 4.199,-0.785 l 0,-0.782 -15.469,0 0,0.782 c 2.247,0.139 3.647,0.439 4.201,0.9 0.554,0.46 0.83,1.618 0.83,3.475 l 0,21.437 -2.969,0 c -2.94,0 -4.942,-0.342 -6.006,-1.025 -1.064,-0.683 -1.864,-2.174 -2.4,-4.475 l -1.281,0 0.312,7.281 z"
           id="path3439"
           style="fill:#ffffff;fill-opacity:1;fill-rule:nonzero;stroke:none" /><path
           d="m 509.923,271.27 -6.069,11.798 -6.085,-11.798 12.154,0 z m -22.833,-11.032 0,0.782 c 1.364,0.125 2.388,0.543 3.07,1.253 0.683,0.71 1.853,2.643 3.51,5.795 l 11.063,21.045 1.043,0 13.203,-24.307 c 0.884,-1.618 1.59,-2.618 2.119,-3.002 0.528,-0.384 1.416,-0.646 2.663,-0.784 l 0,-0.782 -13.516,0 0,0.782 c 1.558,0.111 2.562,0.248 3.011,0.408 0.449,0.16 0.674,0.553 0.674,1.181 0,0.209 -0.087,0.579 -0.259,1.11 -0.174,0.529 -0.415,1.088 -0.726,1.674 l -2.122,4.127 -13.957,0 c -1.387,-2.808 -2.215,-4.522 -2.482,-5.143 -0.268,-0.621 -0.402,-1.112 -0.402,-1.475 0,-0.725 0.363,-1.227 1.089,-1.506 0.451,-0.167 1.301,-0.292 2.549,-0.376 l 0,-0.782 -10.53,0 z"
           id="path3441"
           style="fill:#ffffff;fill-opacity:1;fill-rule:nonzero;stroke:none" /><path
           d="m 574.378,275.832 c 2.81,0.939 4.216,2.708 4.216,5.305 0,2.498 -1.261,4.203 -3.781,5.115 -1.347,0.49 -3.134,0.736 -5.362,0.736 -1.503,0 -2.422,-0.088 -2.759,-0.262 -0.337,-0.175 -0.504,-0.585 -0.504,-1.228 l 0,-10.603 c 3.818,0.108 6.548,0.42 8.19,0.937 M 556.25,261.02 c 2.039,0.153 3.31,0.474 3.811,0.962 0.501,0.489 0.752,1.626 0.752,3.413 l 0,18.562 c 0,1.516 -0.282,2.51 -0.843,2.981 -0.562,0.469 -1.802,0.767 -3.72,0.894 l 0,0.781 14.685,0 c 3.054,0 5.601,-0.314 7.638,-0.943 3.867,-1.188 5.802,-3.373 5.802,-6.558 0,-2.137 -0.858,-3.778 -2.575,-4.924 -1.718,-1.145 -4.052,-1.899 -7.003,-2.262 l 10.932,-10.86 c 0.674,-0.668 1.348,-1.156 2.022,-1.462 0.674,-0.306 1.539,-0.5 2.593,-0.584 l 0,-0.782 -8.552,0 -13.275,13.188 -2.329,-0.094 0,-8.443 c 0,-1.59 0.297,-2.598 0.893,-3.023 0.596,-0.425 1.895,-0.708 3.898,-0.846 l 0,-0.782 -14.729,0 0,0.782 z"
           id="path3443"
           style="fill:#ffffff;fill-opacity:1;fill-rule:nonzero;stroke:none" /><path
           d="m 602.22,261.02 c 2.159,0.125 3.558,0.386 4.197,0.785 0.639,0.398 0.959,1.427 0.959,3.09 l 0,19.062 c 0,1.586 -0.32,2.607 -0.959,3.064 -0.639,0.456 -2.038,0.727 -4.197,0.811 l 0,0.781 15.687,0 0,-0.781 c -2.159,-0.084 -3.558,-0.355 -4.197,-0.811 -0.64,-0.457 -0.959,-1.478 -0.959,-3.064 l 0,-19.062 c 0,-1.663 0.319,-2.692 0.959,-3.09 0.639,-0.399 2.038,-0.66 4.197,-0.785 l 0,-0.782 -15.687,0 0,0.782 z"
           id="path3445"
           style="fill:#ffffff;fill-opacity:1;fill-rule:nonzero;stroke:none" /><path
           d="m 654.888,288.422 c 2.017,-0.461 3.148,-0.692 3.389,-0.692 0.5,0 0.974,0.112 1.423,0.335 0.448,0.224 0.759,0.574 0.932,1.048 l 1.125,0 0.5,-9.625 -1.219,0 c -0.708,1.912 -1.631,3.455 -2.771,4.629 -2.175,2.205 -5.102,3.309 -8.779,3.309 -3.712,0 -6.747,-1.188 -9.102,-3.563 -2.358,-2.376 -3.535,-5.645 -3.535,-9.809 0,-3.829 1.238,-6.886 3.716,-9.17 2.477,-2.284 5.616,-3.427 9.414,-3.427 2.745,0 5.275,0.531 7.588,1.593 1.329,0.6 2.788,1.509 4.377,2.723 l 0.998,-0.794 c -1.173,-1.2 -2.633,-2.252 -4.378,-3.159 -2.969,-1.534 -6.19,-2.3 -9.661,-2.3 -5.699,0 -10.224,1.472 -13.574,4.418 -3.092,2.723 -4.637,6.123 -4.637,10.201 0,4.174 1.63,7.678 4.891,10.513 3.433,2.974 7.9,4.461 13.402,4.461 1.916,0 3.882,-0.23 5.901,-0.691"
           id="path3447"
           style="fill:#ffffff;fill-opacity:1;fill-rule:nonzero;stroke:none" /><path
           d="m 698.716,271.27 -6.068,11.798 -6.085,-11.798 12.153,0 z m -22.832,-11.032 0,0.782 c 1.364,0.125 2.387,0.543 3.07,1.253 0.682,0.71 1.852,2.643 3.51,5.795 l 11.063,21.045 1.043,0 13.204,-24.307 c 0.883,-1.618 1.589,-2.618 2.118,-3.002 0.528,-0.384 1.416,-0.646 2.664,-0.784 l 0,-0.782 -13.517,0 0,0.782 c 1.558,0.111 2.562,0.248 3.011,0.408 0.449,0.16 0.674,0.553 0.674,1.181 0,0.209 -0.086,0.579 -0.26,1.11 -0.172,0.529 -0.414,1.088 -0.725,1.674 l -2.123,4.127 -13.957,0 c -1.387,-2.808 -2.214,-4.522 -2.481,-5.143 -0.268,-0.621 -0.402,-1.112 -0.402,-1.475 0,-0.725 0.364,-1.227 1.089,-1.506 0.45,-0.167 1.3,-0.292 2.549,-0.376 l 0,-0.782 -10.53,0 z"
           id="path3449"
           style="fill:#ffffff;fill-opacity:1;fill-rule:nonzero;stroke:none" /></g></g></g></svg>